<?xml version="1.0" standalone="no"?><!DOCTYPE svg PUBLIC "-//W3C//DTD SVG 1.1//EN" "http://www.w3.org/Graphics/SVG/1.1/DTD/svg11.dtd"><svg t="1594176649460" class="icon" viewBox="0 0 1024 1024" version="1.1" xmlns="http://www.w3.org/2000/svg" p-id="5849" xmlns:xlink="http://www.w3.org/1999/xlink" width="200" height="200"><defs><style type="text/css"></style></defs><path d="M816 816m-32 0a32 32 0 1 0 64 0 32 32 0 1 0-64 0Z" p-id="5850" fill="#ffffff"></path><path d="M512 968a456 456 0 1 1 395.76-229.36 32 32 0 0 1-55.52-32 392 392 0 1 0-145.44 145.44 32 32 0 1 1 32 55.52A456 456 0 0 1 512 968z" p-id="5851" fill="#ffffff"></path><path d="M424 697.2a48 48 0 0 1-48-48V381.28a48 48 0 0 1 72-41.6l232 134a48 48 0 0 1 0 83.12L448 690.72a48 48 0 0 1-24 6.48z m16-288v212.24l184-106.16z m-24-14z" p-id="5852" fill="#ffffff"></path></svg>