<svg t="1582273408744" class="icon" viewBox="0 0 1024 1024" version="1.1" xmlns="http://www.w3.org/2000/svg" p-id="886" width="200" height="200"><path d="M780.40812473 665.36h115.036875c10.5975 0 19.63125027 3.75187527 27.11250054 11.24999973 7.52062474 7.50374973 11.26125027 16.52625027 11.26124946 27.07875054 0 10.665-3.74062473 19.68749973-11.26687473 27.19124946-7.475625 7.49812527-16.50937527 11.24999973-27.10687527 11.25000054h-115.03124974c-10.58625027 0-19.63125027 3.75187527-27.11249972 11.24999974-7.52062474 7.50374973-11.24999973 16.52625027-11.25000054 27.07312526v115.09874973c0 10.546875-3.75187527 19.575-11.26124946 27.07312527-7.48687473 7.49812527-16.52625027 11.24999973-27.11250054 11.24999973-10.57499973 0-19.63687473-3.75187527-27.08999946-11.24999973-7.53749972-7.50374973-11.26125027-16.52625027-11.26125028-27.07312527v-115.09874973c0-31.75874999 11.21624973-58.83749973 33.69374974-81.3375 22.46625027-22.50000027 49.55624973-33.63750027 81.33187554-33.63750027l0.05624946-0.11249973zM320.249375 90.125c10.59187473 0 19.63687473 3.75187527 27.10687527 11.24999973 7.52062474 7.50374973 11.26125027 16.52625027 11.26124945 27.07312527v115.09874973c0 31.75874999-11.23874999 58.83749973-33.70499945 81.3375-22.46625027 22.50000027-49.58437527 33.75-81.34312527 33.75H128.52687473c-10.57499973 0-19.63125027-3.74624999-27.10687446-11.36249946-7.52062474-7.38562473-11.24999973-16.40812527-11.25000054-27.07312528 0-10.55250027 3.729375-19.575 11.25000054-27.07874972 7.48125027-7.49812527 16.52625027-11.24999973 27.11249973-11.25000054h115.03124973c10.5975 0 19.63125027-3.75187527 27.11250054-11.24999974 7.52062474-7.50374973 11.26125027-16.52625027 11.26124947-27.07312526V128.448125c0-10.546875 3.72374973-19.68749973 11.26125027-27.07312527 7.48125027-7.61625027 16.51499973-11.24999973 27.09562472-11.24999973h-0.04499973zM128.52687473 665.36H243.57500027c31.75874999 0 58.876875 11.24999973 81.3375 33.75562527 22.47187473 22.38749973 33.71062473 49.57874999 33.71062473 81.3375v114.97499946c0 10.67062527-3.74062473 19.693125-11.26125027 27.19687554-7.46999973 7.49812527-16.51499973 11.24999973-27.11249973 11.24999973-10.57499973 0-19.63125027-3.75187527-27.09000027-11.24999973-7.53749972-7.50374973-11.26687473-16.52625027-11.26687473-27.19125026v-114.97500028c0-10.67062527-3.73500027-19.693125-11.27250001-27.07874972-7.46437527-7.61625027-16.49812473-11.36250027-27.10687526-11.36250027H128.47624973c-10.58625027 0-19.63125027-3.63937473-27.10125-11.25562501-7.52062474-7.38562473-11.24999973-16.52625027-11.24999973-27.07312446 0-10.55250027 3.729375-19.68749973 11.24999973-27.07875054 7.46437527-7.61625027 16.51499973-11.24999973 27.09562554-11.24999973h0.05624946zM703.72812473 90.125c10.5975 0 19.6425 3.75187527 27.11250054 11.24999973 7.52062474 7.50374973 11.255625 16.52625027 11.255625 27.07312527v115.09874973c0 10.546875 3.74062473 19.68749973 11.26687473 27.07312526 7.46437527 7.61625027 16.520625 11.24999973 27.10687527 11.24999974h115.02562446c10.59187473 0 19.6425 3.75187527 27.11250054 11.25000054 7.51500027 7.50374973 11.26687473 16.52625027 11.26687473 27.19124946 0 10.55250027-3.75187527 19.575-11.26125027 27.07875054-7.48125027 7.49812527-16.52625027 11.24999973-27.118125 11.24999973h-115.03124973c-31.76999973 0-58.84875027-11.24999973-81.3375-33.63750027-22.48312527-22.50000027-33.69374973-49.57874999-33.69374973-81.3375V128.56062471c0-10.665 3.73500027-19.68749973 11.24999973-27.07312444 7.475625-7.61625027 16.5375-11.24999973 27.11249973-11.25000054L703.73374999 90.125z" fill="#ffffff" p-id="887"></path></svg>